<svg width="64" height="64" viewBox="0 0 64 64" xmlns="http://www.w3.org/2000/svg">
  <g id="scheme-log-gem">
    <polygon points="8,8 56,8 60,16 60,48 56,56 8,56 4,48 4,16" fill="#990000" stroke="#660000" stroke-width="2"/>
    
    <rect x="10" y="10" width="44" height="44" fill="#ff4d4d" opacity="0.2"/>
    <polygon points="4,16 8,8 56,8 60,16 10,16 10,16" fill="#ff6666" opacity="0.4"/>
    <polygon points="60,16 60,48 56,56 54,54 54,16" fill="#ff3333" opacity="0.3"/>

    <g fill="#ffffff" opacity="0.8">
        <circle cx="16" cy="22" r="2"/> <rect x="22" y="20" width="26" height="4" rx="1"/>
        <circle cx="16" cy="32" r="2"/> <rect x="22" y="30" width="20" height="4" rx="1"/>
        <circle cx="16" cy="42" r="2"/> <rect x="22" y="40" width="24" height="4" rx="1"/>
    </g>
  </g>
</svg>